# xmcd
#
# Track frame offsets:
#	187
#	9992
#	20512
#	30067
#	39537
#	53325
#	65100
#	74487
#	84025
#	96250
#	106237
#	116672
#	125837
#	136070
#	144615
#
# Disc length: 2064 seconds
#
# Revision: 0
# Processed by: cddbd v1.5.2PL0 Copyright (c) Steve Scherf et al.
# Submitted via: EasyCDDAExtractor 9.1.1.5
#
DISCID=c0080e0f
DTITLE=Billy Vaughn - Twin Best
DYEAR=1900
DGENRE=Blues
TTITLE0=Sail Along, Silv'ry Moon
TTITLE1=Pearly Shells
TTITLE2=Red Sails in the Sunset
TTITLE3=Wheels
TTITLE4=Beyond the Reef
TTITLE5=Sweet Leilani
TTITLE6=Blue Hawaii
TTITLE7=Little Brown Gal
TTITLE8=Hawaiian Wedding Song
TTITLE9=Song of the Island
TTITLE10=Isle of Capri
TTITLE11=Ebb Tide
TTITLE12=Raunchy
TTITLE13=Tennessee Waltz
TTITLE14=A Swingin' Safari
EXTD=
EXTT0=
EXTT1=
EXTT2=
EXTT3=
EXTT4=
EXTT5=
EXTT6=
EXTT7=
EXTT8=
EXTT9=
EXTT10=
EXTT11=
EXTT12=
EXTT13=
EXTT14=
PLAYORDER=
